<mxfile host="app.diagrams.net" modified="2024-01-29T07:01:11.112Z" agent="Mozilla/5.0 (X11; Linux x86_64) AppleWebKit/537.36 (KHTML, like Gecko) Chrome/116.0.0.0 Safari/537.36" version="23.0.2" etag="Y2KdAGH9LQ6TLjroRsEi" type="github">
  <diagram name="Halaman-1" id="oqTVBSzSdu4prpKjfJ2g">
    <mxGraphModel>
      <root>
        <mxCell id="0" />
        <mxCell id="1" parent="0" />
      </root>
    </mxGraphModel>
  </diagram>
</mxfile>
